<svg width="25" height="20" viewBox="0 0 25 20" fill="none" xmlns="http://www.w3.org/2000/svg">
<path fill-rule="evenodd" clip-rule="evenodd" d="M24.3101 0.368427C23.3196 0.948479 22.2213 1.3676 21.0523 1.59455C20.1157 0.612473 18.7844 0 17.3088 0C14.4756 0 12.1796 2.26008 12.1796 5.04834C12.1796 5.44447 12.2251 5.83058 12.3132 6.19901C8.04987 5.98915 4.27047 3.97901 1.74029 0.92431C1.29833 1.6706 1.04681 2.53773 1.04681 3.46204C1.04681 5.21457 1.95109 6.75961 3.32786 7.66447C2.48766 7.63912 1.69597 7.41099 1.00489 7.03372V7.09679C1.00489 9.54315 2.77212 11.5834 5.11845 12.0473C4.68787 12.1628 4.23573 12.2247 3.76743 12.2247C3.43745 12.2247 3.11587 12.1929 2.80266 12.1339C3.45542 14.1394 5.34902 15.6007 7.59474 15.6396C5.83768 16.9948 3.6261 17.8006 1.22467 17.8006C0.809658 17.8006 0.401236 17.7776 0 17.7305C2.26908 19.1641 4.96515 20 7.86243 20C17.2969 20 22.456 12.3066 22.456 5.63487C22.456 5.415 22.4513 5.19807 22.4411 4.98173C23.4436 4.27022 24.3125 3.3801 25 2.36855C24.0807 2.7688 23.0914 3.04056 22.0548 3.1614C23.1124 2.53773 23.9262 1.54739 24.3101 0.368427Z" fill="#222222"/>
</svg>
